#define icon_width 48
#define icon_height 48
static unsigned char icon_bits[] = {
   0x00, 0x00, 0x00, 0x00, 0x00, 0x00, 0x00, 0x00, 0x00, 0x00, 0x00, 0x00,
   0x00, 0x00, 0x00, 0x00, 0x00, 0x00, 0x00, 0x00, 0x00, 0x00, 0x00, 0x00,
   0x00, 0x00, 0x40, 0x00, 0x01, 0x00, 0x00, 0x00, 0x08, 0x00, 0x00, 0x00,
   0x00, 0x00, 0x00, 0x00, 0x08, 0x00, 0x00, 0x00, 0x08, 0x00, 0x08, 0x00,
   0x00, 0x00, 0x68, 0x49, 0x05, 0x00, 0x00, 0x24, 0x19, 0x91, 0x08, 0x00,
   0x00, 0x00, 0xc0, 0x24, 0x09, 0x00, 0x00, 0x00, 0x00, 0x49, 0x0a, 0x00,
   0x00, 0x00, 0x00, 0xa2, 0x0b, 0x00, 0x10, 0x00, 0x00, 0x5f, 0x08, 0x00,
   0x80, 0x00, 0x40, 0x80, 0x02, 0x00, 0x00, 0x20, 0x02, 0x7d, 0x0f, 0x00,
   0x00, 0x00, 0x00, 0x00, 0x40, 0x00, 0x00, 0x00, 0x10, 0x00, 0x00, 0x00,
   0x10, 0x00, 0x00, 0x00, 0x00, 0x00, 0x10, 0x00, 0x00, 0x00, 0x00, 0x00,
   0x00, 0x02, 0x06, 0x00, 0x00, 0x08, 0x00, 0x00, 0x08, 0x00, 0x00, 0x02,
   0x00, 0x00, 0x40, 0x00, 0xa0, 0x08, 0x00, 0x00, 0x00, 0x50, 0x01, 0x00,
   0x10, 0x00, 0x04, 0x00, 0x00, 0x08, 0x40, 0x00, 0x00, 0x00, 0x00, 0x00,
   0x00, 0x90, 0x02, 0x00, 0x00, 0x08, 0x00, 0x00, 0x04, 0x00, 0x00, 0x08,
   0x00, 0x00, 0x1c, 0x00, 0x00, 0x0a, 0x00, 0x00, 0xd0, 0x02, 0x60, 0x01,
   0x00, 0x00, 0x04, 0xf5, 0x16, 0x0a, 0x00, 0x02, 0x54, 0x80, 0x40, 0x02,
   0x00, 0x00, 0x24, 0x15, 0x2a, 0x0c, 0x00, 0x00, 0x0c, 0xa0, 0x84, 0x00,
   0x00, 0x00, 0xa4, 0x0a, 0x29, 0x0d, 0x00, 0x00, 0x3c, 0x21, 0x41, 0x0b,
   0x00, 0x00, 0xec, 0xaf, 0xfe, 0x07, 0x00, 0x00, 0x6c, 0xfd, 0x5b, 0x0d,
   0x00, 0x00, 0xdc, 0x2a, 0x6d, 0x05, 0x00, 0x00, 0xac, 0x6d, 0xdb, 0x0b,
   0x00, 0x00, 0x5c, 0xab, 0xaa, 0x0a, 0x00, 0x00, 0xe8, 0xee, 0xf6, 0x06,
   0x00, 0x00, 0xb0, 0x55, 0xab, 0x01, 0x00, 0x00, 0x00, 0xff, 0x3f, 0x00,
   0x00, 0x00, 0x00, 0x00, 0x00, 0x00, 0x00, 0x00, 0x00, 0x00, 0x00, 0x00,
   0x00, 0x00, 0x00, 0x00, 0x00, 0x00, 0x00, 0x00, 0x00, 0x00, 0x00, 0x00 };
